<svg width="41" height="46" viewBox="0 0 41 46" fill="none" xmlns="http://www.w3.org/2000/svg">
<path d="M18.2188 0.388947C17.9026 0.421677 17.5634 0.46376 17.4626 0.482464C16.8439 0.594681 15.8677 0.814445 15.3544 0.95472C12.8201 1.66545 11.7431 2.119 9.74034 3.32536C8.37004 4.15298 5.93192 6.11683 5.12074 7.04732C4.05291 8.26771 3.2234 9.43667 2.83843 10.2549C2.70553 10.5402 2.55429 10.8114 2.50388 10.8581C2.26098 11.0826 1.32148 13.8506 1.03734 15.1879C0.638623 17.0676 0.546964 17.6989 0.47822 19.0922C0.423225 20.2144 0.441557 20.7475 0.60196 22.6459C0.666121 23.3893 0.734865 24.2357 0.75778 24.5162C0.812775 25.1942 0.86777 25.5683 1.00526 26.2276C1.30315 27.6397 1.48647 28.2195 1.81186 28.7759C1.94018 28.9956 2.1235 29.3604 2.21057 29.5848C2.76969 31.0016 3.6267 32.2407 5.46904 34.284C7.60927 36.6593 7.84759 36.9071 9.07581 38.02C9.52952 38.4315 10.1299 38.9926 10.4049 39.2684C10.6844 39.5443 11.2069 40.0072 11.5735 40.2971C11.9401 40.5917 12.3847 40.9471 12.568 41.0967C13.1638 41.5876 14.2729 42.3451 14.7266 42.5696C14.9695 42.6865 15.4415 42.9203 15.7669 43.0839C16.0969 43.2429 16.4956 43.4112 16.656 43.4533C16.821 43.4954 17.0272 43.5702 17.1143 43.617C17.2059 43.6637 17.4763 43.7759 17.7147 43.8741C17.953 43.9676 18.4479 44.164 18.8146 44.3137C19.4653 44.5802 19.9007 44.7158 20.8769 44.9449C21.1427 45.0057 21.6056 45.1226 21.908 45.2021C23.0721 45.5013 24.6303 45.6743 26.2068 45.6743C27.2701 45.6743 27.4992 45.6509 29.3232 45.3891C32.5588 44.9168 33.9795 44.2575 34.9144 42.794C35.084 42.5322 35.4048 41.6344 35.4048 41.4287C35.4002 41.1341 35.1711 40.7039 34.809 40.3111C34.6349 40.1288 33.7779 39.6098 33.425 39.4788C33.3058 39.4321 33.3104 39.4274 33.6724 39.2217C33.8787 39.1048 34.1445 38.9177 34.2728 38.8055C34.5707 38.5297 34.9328 38.0013 35.0152 37.7067C35.1161 37.3607 35.1023 36.9165 34.974 36.5471C34.7678 35.958 34.6303 35.8457 33.5029 35.3361L32.7513 34.9994L33.0812 34.789C33.6862 34.4009 33.7595 34.3448 34.1949 33.8772C34.6853 33.3488 35.1802 32.6288 35.2856 32.2781C35.3223 32.1472 35.3865 31.9601 35.4231 31.8573C35.5056 31.6235 35.4735 31.226 35.3452 30.9688C35.2948 30.866 34.9373 30.4592 34.5478 30.0617C34.1582 29.6643 33.8099 29.2762 33.7687 29.2014C33.7137 29.0892 33.5258 28.5795 33.5258 28.5374C33.5258 28.5327 34.0253 28.514 34.6394 28.5C35.8173 28.472 36.3947 28.3971 37.0501 28.1821C37.5725 28.009 37.7788 27.7799 37.8796 27.2656C37.9437 26.9243 37.8292 24.8061 37.6963 23.9785C37.6459 23.6792 37.5129 22.1783 37.5129 21.9445V21.7808L37.7375 21.9445C38.0766 22.197 38.2737 22.2625 38.6587 22.2625C39.0895 22.2625 39.3461 22.1549 39.6853 21.8276C40.1069 21.4208 40.4002 20.6774 40.4002 20.004C40.4002 19.139 39.9786 18.3675 39.3232 18.0308C38.6587 17.6848 37.8063 17.8719 37.3984 18.447C37.325 18.5545 37.2471 18.6434 37.2288 18.6434C37.2059 18.648 37.1921 18.5592 37.1921 18.4517C37.1921 18.1664 37.1142 17.5773 36.9309 16.5439C36.4085 13.514 35.6935 11.3678 34.534 9.31977C34.3003 8.9083 34.0253 8.44539 33.9153 8.28642C33.2325 7.28579 32.0088 5.95786 30.8539 4.95723C30.4736 4.62524 30.1161 4.31196 30.0657 4.26521C29.3691 3.59656 28.3837 2.93259 27.2013 2.32941C26.8851 2.17044 26.4039 1.89924 26.1243 1.73091C25.4598 1.32878 24.9511 1.09499 24.337 0.903286C23.3379 0.599358 22.7742 0.49649 21.2848 0.365566C20.5836 0.304779 18.9337 0.314133 18.2188 0.388947ZM25.1253 17.8672C26.3443 18.302 26.9539 19.4336 26.6743 20.7662C26.5139 21.5377 25.9181 22.2952 25.1665 22.6739L24.7586 22.8797H24.1583C23.4342 22.8797 23.1729 22.8049 22.678 22.4682C21.6101 21.7434 21.2435 20.3734 21.8026 19.2091C22.0501 18.6855 22.6184 18.1711 23.2142 17.928C23.81 17.6848 24.5341 17.6614 25.1253 17.8672Z" fill="white"/>
</svg>
